<?xml version="1.0" standalone="no"?>
<!DOCTYPE svg PUBLIC "-//W3C//DTD SVG 20010904//EN"
 "http://www.w3.org/TR/2001/REC-SVG-20010904/DTD/svg10.dtd">
<svg version="1.0" xmlns="http://www.w3.org/2000/svg"
 width="360.000000pt" height="360.000000pt" viewBox="0 0 360.000000 360.000000"
 preserveAspectRatio="xMidYMid meet">

<g transform="translate(0.000000,360.000000) scale(0.100000,-0.100000)"
fill="#000000" stroke="none">
<path d="M1400 3269 c-35 -5 -96 -21 -135 -35 -73 -27 -86 -28 -172 -18 -99
11 -162 -50 -261 -256 -25 -52 -56 -110 -69 -128 -28 -37 -109 -82 -150 -82
-40 0 -123 -42 -160 -81 -36 -39 -76 -114 -94 -179 -27 -98 -10 -280 31 -332
9 -13 23 -41 30 -63 50 -159 216 -314 407 -380 65 -23 184 -48 286 -60 l47 -6
0 -88 c0 -109 -9 -124 -76 -126 -27 -1 -59 -7 -71 -14 -72 -38 -108 -167 -63
-224 15 -19 28 -26 40 -22 12 4 29 -5 50 -26 30 -31 31 -35 33 -123 2 -79 6
-99 31 -149 16 -31 53 -84 82 -116 l53 -59 -43 -16 c-78 -30 -176 -149 -176
-215 0 -31 43 -71 78 -71 15 0 33 -5 40 -12 14 -14 160 -31 277 -31 211 -1
342 90 368 254 l12 74 97 -5 c120 -6 136 -18 75 -53 -78 -46 -137 -135 -137
-206 0 -46 22 -67 80 -77 19 -4 48 -13 65 -22 23 -12 71 -15 215 -16 168 0
190 2 240 22 76 30 124 73 157 140 26 53 28 66 28 180 l1 123 62 29 c273 129
479 417 549 767 20 106 24 406 5 496 -18 89 -32 111 -70 115 -27 3 -35 -1 -50
-28 -108 -197 -219 -324 -342 -390 -62 -33 -70 -35 -165 -35 -118 0 -199 22
-342 91 -121 60 -125 65 -81 112 160 169 228 457 168 712 -41 170 -150 343
-285 453 -77 62 -219 132 -320 157 -95 24 -254 33 -345 19z m350 -59 c41 -12
115 -42 165 -68 158 -81 308 -252 366 -418 72 -203 64 -432 -21 -609 -70 -146
-169 -242 -325 -315 -127 -60 -139 -57 -27 6 163 91 272 204 338 350 53 121
59 150 58 304 -1 162 -16 236 -65 338 -34 70 -54 78 -94 37 -53 -52 -14 -201
65 -253 47 -31 57 -60 26 -72 -69 -26 -106 -159 -81 -291 5 -29 0 -43 -33 -94
-167 -258 -555 -380 -1019 -320 -207 27 -363 71 -483 136 l-55 30 58 -56 c108
-103 289 -172 512 -195 55 -6 136 -14 180 -19 l80 -8 -130 -2 c-220 -2 -402
37 -545 116 -81 45 -199 161 -234 230 -31 62 -34 83 -8 60 10 -10 22 -17 27
-17 5 0 23 -16 41 -35 38 -42 48 -43 79 -9 l24 26 15 -35 c8 -20 26 -43 40
-52 24 -16 28 -16 51 -1 14 10 31 28 37 42 10 21 18 24 47 22 31 -3 36 -7 44
-38 11 -44 44 -80 73 -80 26 0 80 42 89 70 9 29 32 24 50 -9 16 -31 51 -61 71
-61 23 0 74 52 82 83 7 26 19 37 68 60 32 16 77 44 99 62 30 24 45 30 60 24
43 -16 50 -9 18 21 -17 16 -40 43 -49 59 -16 28 -61 57 -71 47 -3 -3 4 -15 16
-27 29 -32 26 -54 -12 -83 -131 -100 -316 -116 -587 -50 -86 20 -125 24 -212
22 -106 -3 -107 -3 -137 26 -43 41 -56 87 -55 201 0 79 5 112 22 156 32 79 73
133 129 166 48 28 48 28 240 29 190 1 193 2 213 25 57 69 81 238 40 279 -11
11 -24 20 -29 20 -26 0 -68 -24 -98 -56 l-33 -36 39 74 c56 102 94 145 140
158 43 11 88 0 97 -24 4 -11 17 -8 62 15 134 69 373 86 542 39z m-732 -232
c22 -22 14 -48 -14 -48 -14 0 -35 -5 -47 -11 l-21 -12 23 -8 c32 -13 26 -54
-9 -54 -19 0 -25 5 -24 23 0 12 -1 22 -3 22 -10 0 -43 -85 -43 -113 0 -40 -5
-46 -31 -40 -23 6 -24 28 -3 90 39 113 130 193 172 151z m-202 -162 c-15 -35
-67 -76 -96 -76 -8 1 2 10 22 21 21 10 48 37 60 58 27 48 35 46 14 -3z m2366
-712 c10 -38 -7 -268 -26 -359 -41 -192 -119 -327 -248 -434 -71 -58 -208
-132 -215 -115 -6 19 -67 3 -93 -25 -14 -14 -36 -35 -50 -46 -14 -11 -34 -41
-44 -67 -9 -26 -39 -77 -66 -114 -27 -37 -46 -72 -42 -78 3 -6 19 -30 35 -54
16 -24 30 -54 31 -66 1 -16 6 -22 16 -19 11 3 10 1 -2 -6 -9 -6 -19 -24 -23
-41 -4 -16 -10 -29 -13 -29 -20 3 -31 -2 -27 -13 5 -13 -54 -48 -78 -48 -7 0
-18 -9 -24 -19 -11 -17 -9 -20 16 -26 31 -7 76 -43 66 -53 -3 -4 -9 -2 -13 4
-13 19 -50 34 -87 34 -22 0 -34 4 -30 10 9 15 -2 12 -44 -12 l-38 -21 -48 23
-49 24 40 18 39 18 -43 -4 c-38 -4 -56 -12 -107 -50 -8 -6 -21 -2 -38 11 -25
19 -25 21 -9 36 58 50 174 70 282 47 63 -13 91 -8 46 9 -30 12 -34 37 -8 58
15 12 14 13 -15 8 -31 -6 -33 -5 -33 24 0 17 -1 31 -2 31 -2 0 -27 -9 -56 -20
-30 -11 -77 -20 -110 -20 l-57 0 25 -20 c14 -11 43 -24 65 -29 l40 -9 -43 -1
c-41 -1 -48 3 -106 61 -101 102 -139 208 -118 329 20 118 90 231 185 300 26
19 33 28 23 32 -15 6 -92 -39 -115 -66 -20 -25 -31 -21 -32 11 0 25 -1 24 -16
-13 -38 -94 -91 -136 -170 -134 l-48 2 51 6 c27 3 62 14 76 23 35 23 68 79 75
125 l5 38 -22 -40 c-47 -86 -111 -125 -167 -104 -17 6 -30 6 -36 0 -7 -7 -18
-3 -35 9 -14 11 -33 20 -43 20 -25 0 -24 17 2 59 l21 35 -29 -19 c-15 -10 -32
-24 -36 -32 -5 -7 -12 -11 -17 -8 -15 9 2 45 38 76 32 28 40 31 87 27 32 -3
64 -13 83 -27 28 -20 45 -17 25 3 -5 4 -8 11 -9 14 -1 20 -16 72 -20 72 -3 0
-16 -7 -30 -16 -32 -22 -39 -13 -20 24 18 35 52 62 78 62 10 0 18 5 18 10 0
15 -48 12 -86 -6 -20 -10 -34 -24 -34 -35 0 -38 -22 -67 -56 -74 -105 -19
-181 -206 -88 -217 20 -2 29 -11 38 -38 12 -38 36 -49 71 -30 16 9 32 9 62 1
44 -12 92 -6 136 16 15 7 27 12 27 9 0 -2 -7 -33 -16 -67 -24 -93 -16 -208 20
-279 15 -30 37 -66 49 -79 l22 -24 -96 6 c-113 6 -249 48 -343 104 -86 52
-187 157 -225 234 -58 120 -74 202 -75 409 l-1 185 150 6 c83 3 165 9 183 13
28 7 37 3 68 -28 41 -41 44 -42 87 -20 19 11 52 16 84 15 28 -1 71 3 95 9 24
6 88 15 143 20 55 5 133 12 173 16 l72 7 0 -26 c0 -14 12 -39 26 -56 47 -56
127 -31 136 43 3 28 -1 30 -88 66 -80 33 -184 92 -184 106 0 2 39 -16 88 -40
148 -74 240 -100 362 -100 95 -1 110 2 162 27 128 63 238 169 320 311 66 113
69 117 81 113 6 -2 14 -17 19 -33z m-2572 -23 c0 -10 -6 -24 -14 -30 -12 -10
-17 -8 -25 8 -17 31 -13 41 14 41 18 0 25 -5 25 -19z m166 -13 c8 -9 -37 -68
-51 -68 -16 0 -45 55 -45 84 0 13 6 13 46 1 25 -7 48 -15 50 -17z m212 -34
c28 -6 30 -8 20 -30 -6 -13 -22 -31 -36 -40 -30 -20 -48 -6 -58 44 -6 29 -4
32 19 32 13 0 38 -3 55 -6z m232 -1 c0 -16 -40 -73 -52 -73 -18 0 -48 31 -48
51 0 13 10 19 38 22 20 2 43 4 50 5 6 1 12 -1 12 -5z m1976 -418 c-4 -25 -11
-43 -15 -40 -5 2 -4 25 2 50 13 57 22 51 13 -10z m-37 -160 c-12 -41 -25 -75
-29 -75 -19 0 -16 57 6 104 13 28 24 58 24 66 1 12 3 11 11 -3 8 -13 5 -37
-12 -92z m-2021 -72 c26 -23 41 -113 19 -113 -8 0 -17 -7 -20 -15 -5 -12 -10
-12 -34 0 -15 8 -36 15 -45 15 -15 0 -16 4 -7 26 13 36 4 41 -16 10 -20 -30
-24 -31 -49 -13 -16 12 -17 17 -6 38 32 63 114 90 158 52z m1972 -28 c0 -109
-175 -347 -330 -450 -140 -93 -232 -118 -181 -48 25 33 69 200 72 272 3 69 19
65 19 -4 0 -30 3 -55 8 -55 4 0 37 15 73 33 115 58 229 157 294 256 15 22 32
41 36 41 5 0 9 -20 9 -45z m-1550 -107 c0 -4 -9 -8 -20 -8 -15 0 -20 7 -20 27
0 25 0 26 20 8 11 -10 20 -22 20 -27z m-559 12 c15 0 10 -47 -5 -53 -19 -7
-36 12 -36 41 0 18 4 23 16 18 9 -3 20 -6 25 -6z m90 -30 c23 -13 25 -43 3
-61 -20 -17 -46 -2 -55 34 -10 38 10 49 52 27z m545 -14 c15 -12 17 -18 8 -33
-18 -29 -43 -28 -54 2 -17 44 7 59 46 31z m-459 -22 c-3 -3 -12 -4 -19 -1 -8
3 -5 6 6 6 11 1 17 -2 13 -5z m16 -51 c4 -2 7 -12 7 -21 0 -19 22 -106 35
-134 5 -14 2 -18 -15 -18 -37 0 -60 -19 -60 -49 0 -42 21 -54 86 -49 37 3 50
2 39 -4 -9 -5 -36 -10 -61 -11 -24 -1 -44 -5 -44 -9 0 -10 123 -128 135 -128
5 -1 24 -7 40 -15 l30 -14 -35 6 c-73 11 -167 103 -218 212 -20 43 -25 70 -25
125 1 39 6 83 12 99 9 24 15 27 38 21 16 -4 31 -9 36 -11z m1433 -105 c-10
-76 -41 -139 -93 -189 l-45 -44 37 50 c43 57 71 118 87 188 15 63 22 60 14 -5z
m-49 -361 c10 -132 -29 -236 -106 -280 -27 -16 -24 -11 17 30 34 34 52 62 62
98 16 54 19 169 8 225 -6 27 -5 31 3 17 6 -10 13 -51 16 -90z m-836 -72 c-14
-64 -40 -106 -83 -135 -32 -23 -32 -22 6 16 46 46 62 81 72 155 5 30 10 45 12
34 2 -10 -1 -42 -7 -70z m-346 60 c22 -7 34 -13 27 -14 -20 -1 -42 -27 -42
-48 0 -10 -13 -25 -28 -34 -26 -15 -31 -14 -60 1 -23 13 -28 20 -20 28 7 7 20
12 29 12 10 0 21 5 24 10 17 28 -81 2 -130 -34 -17 -13 -22 -13 -40 0 -19 14
-19 14 2 35 26 27 117 58 163 58 19 0 53 -6 75 -14z m-247 -121 c3 -33 -23
-104 -39 -104 -20 0 -49 21 -49 36 0 22 37 91 52 97 23 9 33 1 36 -29z m315
25 c12 -6 29 -20 36 -32 13 -21 13 -21 -6 -5 -11 10 -37 24 -59 32 -27 10 -33
15 -17 15 12 1 33 -4 46 -10z m-168 -39 c19 -37 11 -96 -16 -110 -26 -14 -92
-12 -113 3 -14 10 -17 21 -11 45 18 86 108 125 140 62z m162 -5 c24 -17 39
-71 29 -103 -8 -23 -75 -37 -131 -26 -29 5 -35 10 -35 31 0 29 34 88 58 103
25 14 55 12 79 -5z m517 -17 c7 -19 5 -40 -4 -70 -18 -59 -23 -62 -64 -48 -43
14 -47 39 -16 99 29 58 67 67 84 19z m162 -13 c22 -22 25 -32 22 -83 l-3 -57
-76 -3 c-58 -2 -79 1 -89 12 -19 23 -4 81 32 121 37 43 77 47 114 10z m218
-15 c10 -10 20 -37 23 -62 7 -60 -9 -72 -100 -72 l-72 -1 1 43 c1 47 26 89 65
109 28 14 56 9 83 -17z"/>
<path d="M1503 3200 c-13 -5 -25 -21 -28 -37 -4 -15 -15 -46 -26 -69 -26 -57
-24 -60 13 -18 43 48 100 74 167 74 99 0 178 -56 232 -167 l29 -58 -6 45 c-14
98 -66 162 -171 210 -68 31 -160 40 -210 20z"/>
<path d="M1363 3176 c25 -20 21 -36 -10 -36 -101 -1 -143 -33 -109 -85 32 -49
120 -18 161 57 19 36 19 37 1 57 -11 12 -29 21 -40 21 -20 -1 -20 -2 -3 -14z"/>
<path d="M984 3119 c-19 -21 -19 -21 16 -14 19 3 48 2 63 -4 30 -12 35 -1 11
23 -22 22 -67 20 -90 -5z"/>
<path d="M1942 3088 c-20 -20 -14 -69 13 -103 35 -46 112 -95 150 -95 40 0 61
21 46 47 -11 21 -86 93 -120 116 -22 15 -25 14 -41 -5 -23 -28 -56 -18 -40 12
6 11 15 20 21 20 6 0 7 5 4 10 -8 13 -18 13 -33 -2z"/>
<path d="M1585 3078 c-29 -11 -28 -12 34 -24 41 -9 84 -27 117 -49 l53 -35
-10 27 c-14 38 -27 52 -70 74 -42 21 -79 23 -124 7z"/>
<path d="M1191 2981 c-29 -29 -17 -53 23 -49 27 3 31 7 31 33 0 37 -25 45 -54
16z"/>
<path d="M1280 2954 c0 -9 5 -14 12 -12 18 6 21 28 4 28 -9 0 -16 -7 -16 -16z"/>
<path d="M1528 2940 c-111 -33 -188 -145 -202 -290 l-6 -65 15 63 c24 106 89
197 167 232 76 34 139 21 195 -43 42 -48 57 -97 57 -187 0 -74 -12 -113 -52
-165 -8 -11 1 -4 21 17 43 44 67 117 67 202 0 158 -131 276 -262 236z"/>
<path d="M1110 2910 c0 -23 35 -28 43 -6 7 18 -1 26 -25 26 -11 0 -18 -7 -18
-20z"/>
<path d="M1230 2884 c0 -9 7 -14 17 -12 25 5 28 28 4 28 -12 0 -21 -6 -21 -16z"/>
<path d="M1981 2854 c-25 -32 -26 -43 -5 -72 16 -24 53 -29 85 -12 28 15 26
74 -3 94 -32 23 -54 20 -77 -10z"/>
<path d="M1465 2816 c-64 -29 -115 -110 -115 -181 0 -39 27 -100 57 -127 27
-25 87 -48 126 -48 109 0 205 126 179 235 -8 32 -10 35 -11 13 -1 -32 -52 -78
-87 -78 -32 0 -64 34 -64 68 0 29 26 62 48 62 7 0 12 7 12 15 0 14 12 20 35
16 6 -1 2 6 -7 15 -23 24 -131 30 -173 10z m-15 -66 c0 -5 -7 -10 -15 -10 -8
0 -15 5 -15 10 0 6 7 10 15 10 8 0 15 -4 15 -10z m195 -180 c12 -20 -6 -50
-30 -50 -27 0 -40 26 -24 46 13 16 45 18 54 4z"/>
<path d="M1995 2701 c-7 -12 12 -24 25 -16 11 7 4 25 -10 25 -5 0 -11 -4 -15
-9z"/>
<path d="M1025 2640 c-15 -6 -9 -9 25 -9 34 0 40 3 25 9 -11 5 -22 9 -25 9 -3
0 -14 -4 -25 -9z"/>
<path d="M2044 2624 c-22 -33 -9 -78 24 -82 32 -5 52 15 52 52 0 58 -46 76
-76 30z"/>
<path d="M487 2592 c-21 -23 -22 -71 -3 -97 12 -16 16 -17 30 -6 31 26 32 121
2 121 -7 0 -20 -8 -29 -18z"/>
<path d="M1330 2554 c0 -11 7 -29 15 -40 19 -25 19 -15 0 27 -10 25 -14 29
-15 13z"/>
<path d="M2114 2535 c-7 -18 3 -35 21 -35 15 0 28 27 19 41 -8 14 -34 11 -40
-6z"/>
<path d="M982 2520 c-41 -25 -72 -76 -72 -118 0 -32 1 -33 23 -17 12 8 40 20
62 26 52 14 75 35 75 70 0 28 -22 59 -43 59 -7 0 -27 -9 -45 -20z"/>
<path d="M2006 2481 c-23 -26 -17 -60 16 -84 25 -19 28 -19 52 -3 28 18 36 72
14 94 -18 18 -63 14 -82 -7z"/>
<path d="M1998 2348 c-7 -19 2 -38 17 -38 18 0 26 25 12 39 -14 14 -24 14 -29
-1z"/>
<path d="M2040 2265 c0 -8 5 -15 10 -15 6 0 10 7 10 15 0 8 -4 15 -10 15 -5 0
-10 -7 -10 -15z"/>
<path d="M3125 2060 c-3 -5 1 -10 9 -10 9 0 16 5 16 10 0 6 -4 10 -9 10 -6 0
-13 -4 -16 -10z"/>
<path d="M3096 1992 c-3 -9 -11 -25 -18 -34 -19 -27 2 -53 42 -53 44 0 61 25
40 62 -19 34 -56 48 -64 25z"/>
<path d="M3020 1877 c0 -9 -14 -27 -30 -41 l-30 -25 22 -15 c35 -24 75 -20 94
10 16 24 16 27 -3 52 -23 31 -53 41 -53 19z"/>
<path d="M2906 1763 c-12 -16 -25 -23 -38 -20 -16 5 -17 3 -7 -11 41 -54 99
-69 119 -31 9 16 8 26 -4 44 -27 41 -48 46 -70 18z"/>
<path d="M2190 1665 c0 -8 7 -15 15 -15 8 0 15 7 15 15 0 8 -7 15 -15 15 -8 0
-15 -7 -15 -15z"/>
<path d="M2985 1670 c-7 -12 2 -30 16 -30 12 0 12 27 0 35 -5 3 -12 1 -16 -5z"/>
<path d="M2485 1631 c6 -54 20 -80 53 -92 42 -16 76 16 80 75 l3 46 -33 0
c-18 0 -50 3 -70 6 l-37 6 4 -41z"/>
<path d="M2683 1660 c-18 -7 -23 -17 -23 -44 0 -66 32 -116 75 -116 56 0 73
70 32 131 -24 36 -48 44 -84 29z"/>
<path d="M2122 1648 c-35 -35 4 -82 48 -58 34 18 20 70 -20 70 -9 0 -21 -5
-28 -12z"/>
<path d="M2840 1645 c-15 -18 0 -62 25 -71 21 -8 45 14 45 40 0 42 -45 62 -70
31z"/>
<path d="M1295 1573 c35 -20 182 -24 225 -6 20 9 0 11 -91 11 -63 0 -126 2
-140 6 -20 6 -20 4 6 -11z"/>
<path d="M2330 1535 c-26 -32 19 -80 48 -51 18 17 11 41 -16 55 -15 8 -23 7
-32 -4z"/>
<path d="M2464 1525 c-9 -22 22 -53 37 -38 15 15 7 47 -14 51 -9 2 -20 -4 -23
-13z"/>
<path d="M2812 1516 c1 -10 8 -17 13 -17 15 1 12 24 -3 29 -9 3 -13 -2 -10
-12z"/>
<path d="M2630 1471 c0 -37 22 -57 40 -36 18 21 4 65 -20 65 -15 0 -20 -7 -20
-29z"/>
<path d="M2532 1479 c2 -6 8 -10 13 -10 5 0 11 4 13 10 2 6 -4 11 -13 11 -9 0
-15 -5 -13 -11z"/>
<path d="M2894 1456 c-8 -34 1 -56 24 -56 49 0 57 73 10 78 -22 3 -29 -2 -34
-22z"/>
<path d="M2330 1369 c0 -20 21 -49 35 -49 18 0 25 21 13 43 -9 18 -48 24 -48
6z"/>
<path d="M2224 1346 c-27 -20 -7 -51 32 -51 35 0 40 30 8 51 -17 12 -23 12
-40 0z"/>
<path d="M2084 1246 c-9 -24 16 -47 45 -44 20 2 26 9 26 28 0 21 -5 26 -33 28
-22 2 -34 -2 -38 -12z"/>
<path d="M2265 1219 c-10 -15 1 -23 20 -15 9 3 13 10 10 16 -8 13 -22 13 -30
-1z"/>
<path d="M2144 1149 c-3 -6 -2 -15 4 -21 13 -13 32 -2 32 18 0 16 -26 19 -36
3z"/>
<path d="M1970 1070 c-29 -54 79 -110 124 -64 22 21 20 31 -9 59 -32 33 -99
35 -115 5z"/>
<path d="M1916 984 c-19 -19 -20 -26 -4 -42 25 -25 98 -7 98 24 0 14 -38 34
-65 34 -7 0 -21 -7 -29 -16z"/>
<path d="M2068 909 c-48 -27 7 -89 64 -73 17 5 36 17 42 27 23 38 -60 73 -106
46z"/>
<path d="M2180 837 c-45 -28 -167 -31 -217 -5 -41 21 -43 7 -7 -45 30 -45 57
-57 125 -57 86 0 169 52 169 106 0 30 -22 30 -70 1z"/>
<path d="M3033 1250 c0 -25 2 -35 4 -22 2 12 2 32 0 45 -2 12 -4 2 -4 -23z"/>
<path d="M2907 1100 c-4 -25 -10 -56 -14 -70 l-5 -25 16 22 c12 16 16 38 14
70 l-3 48 -8 -45z"/>
<path d="M2682 1020 c0 -19 2 -27 5 -17 2 9 2 25 0 35 -3 9 -5 1 -5 -18z"/>
<path d="M2771 1015 c-1 -11 -10 -44 -20 -72 -13 -38 -14 -50 -4 -42 18 15 36
80 30 109 -3 20 -5 21 -6 5z"/>
<path d="M1140 1049 c-11 -20 1 -49 21 -49 17 0 31 41 18 56 -16 19 -26 18
-39 -7z"/>
</g>
</svg>
